<svg width="155" height="30" viewBox="0 0 155 30" fill="none" xmlns="http://www.w3.org/2000/svg">
<path d="M41.3595 10.112H45.7155C46.7355 10.112 47.6535 10.268 48.4695 10.58C49.2855 10.892 49.9815 11.336 50.5575 11.912C51.1335 12.476 51.5715 13.154 51.8715 13.946C52.1835 14.738 52.3395 15.608 52.3395 16.556C52.3395 17.516 52.1835 18.392 51.8715 19.184C51.5715 19.976 51.1335 20.654 50.5575 21.218C49.9815 21.782 49.2855 22.22 48.4695 22.532C47.6535 22.844 46.7355 23 45.7155 23H41.3595V10.112ZM45.6075 20.696C46.3155 20.696 46.9395 20.6 47.4795 20.408C48.0195 20.204 48.4695 19.922 48.8295 19.562C49.1895 19.202 49.4595 18.77 49.6395 18.266C49.8195 17.75 49.9095 17.18 49.9095 16.556C49.9095 15.932 49.8195 15.368 49.6395 14.864C49.4595 14.348 49.1895 13.91 48.8295 13.55C48.4695 13.19 48.0195 12.914 47.4795 12.722C46.9395 12.518 46.3155 12.416 45.6075 12.416H43.7895V20.696H45.6075ZM59.013 23.288C58.257 23.288 57.567 23.168 56.943 22.928C56.331 22.676 55.809 22.316 55.377 21.848C54.945 21.38 54.609 20.816 54.369 20.156C54.129 19.484 54.009 18.722 54.009 17.87V10.112H56.439V18.014C56.439 18.446 56.493 18.842 56.601 19.202C56.709 19.562 56.871 19.874 57.087 20.138C57.303 20.402 57.573 20.612 57.897 20.768C58.221 20.912 58.593 20.984 59.013 20.984C59.445 20.984 59.823 20.912 60.147 20.768C60.471 20.612 60.741 20.402 60.957 20.138C61.173 19.874 61.335 19.562 61.443 19.202C61.551 18.842 61.605 18.446 61.605 18.014V10.112H64.035V17.87C64.035 18.674 63.915 19.412 63.675 20.084C63.447 20.744 63.111 21.314 62.667 21.794C62.235 22.262 61.707 22.628 61.083 22.892C60.471 23.156 59.781 23.288 59.013 23.288ZM66.338 10.112H68.732L72.674 16.934H72.818L76.76 10.112H79.172V23H76.76V16.646L76.904 14.486H76.76L73.484 20.264H72.026L68.732 14.486H68.588L68.732 16.646V23H66.338V10.112ZM81.7716 10.112H86.8116C87.3636 10.112 87.8796 10.202 88.3596 10.382C88.8396 10.55 89.2536 10.79 89.6016 11.102C89.9616 11.402 90.2436 11.756 90.4476 12.164C90.6516 12.572 90.7536 13.01 90.7536 13.478C90.7536 14.162 90.5856 14.738 90.2496 15.206C89.9256 15.662 89.5176 16.01 89.0256 16.25V16.394C89.6856 16.634 90.2136 17.012 90.6096 17.528C91.0176 18.032 91.2216 18.662 91.2216 19.418C91.2216 19.97 91.1076 20.468 90.8796 20.912C90.6636 21.344 90.3636 21.716 89.9796 22.028C89.5956 22.34 89.1456 22.58 88.6296 22.748C88.1256 22.916 87.5796 23 86.9916 23H81.7716V10.112ZM86.6316 15.368C87.1956 15.368 87.6276 15.218 87.9276 14.918C88.2396 14.606 88.3956 14.24 88.3956 13.82C88.3956 13.4 88.2456 13.04 87.9456 12.74C87.6456 12.44 87.2316 12.29 86.7036 12.29H84.2016V15.368H86.6316ZM86.9016 20.768C87.5136 20.768 87.9816 20.618 88.3056 20.318C88.6296 20.006 88.7916 19.61 88.7916 19.13C88.7916 18.65 88.6236 18.254 88.2876 17.942C87.9636 17.618 87.4776 17.456 86.8296 17.456H84.2016V20.768H86.9016Z" fill="#EE4622"/>
<path d="M97.0339 23.288C96.4819 23.288 95.9539 23.21 95.4499 23.054C94.9459 22.898 94.4839 22.664 94.0639 22.352C93.6439 22.04 93.2779 21.662 92.9659 21.218C92.6539 20.762 92.4079 20.234 92.2279 19.634L94.5139 18.734C94.6819 19.382 94.9759 19.922 95.3959 20.354C95.8159 20.774 96.3679 20.984 97.0519 20.984C97.3039 20.984 97.5439 20.954 97.7719 20.894C98.0119 20.822 98.2219 20.726 98.4019 20.606C98.5939 20.474 98.7439 20.312 98.8519 20.12C98.9599 19.928 99.0139 19.706 99.0139 19.454C99.0139 19.214 98.9719 18.998 98.8879 18.806C98.8039 18.614 98.6599 18.434 98.4559 18.266C98.2639 18.098 98.0059 17.936 97.6819 17.78C97.3699 17.624 96.9799 17.462 96.5119 17.294L95.7199 17.006C95.3719 16.886 95.0179 16.724 94.6579 16.52C94.3099 16.316 93.9919 16.07 93.7039 15.782C93.4159 15.494 93.1759 15.158 92.9839 14.774C92.8039 14.378 92.7139 13.934 92.7139 13.442C92.7139 12.938 92.8099 12.47 93.0019 12.038C93.2059 11.594 93.4879 11.21 93.8479 10.886C94.2199 10.55 94.6579 10.292 95.1619 10.112C95.6779 9.92 96.2479 9.824 96.8719 9.824C97.5199 9.824 98.0779 9.914 98.5459 10.094C99.0259 10.262 99.4279 10.484 99.7519 10.76C100.088 11.024 100.358 11.318 100.562 11.642C100.766 11.966 100.916 12.272 101.012 12.56L98.8699 13.46C98.7499 13.1 98.5279 12.776 98.2039 12.488C97.8919 12.2 97.4599 12.056 96.9079 12.056C96.3799 12.056 95.9419 12.182 95.5939 12.434C95.2459 12.674 95.0719 12.992 95.0719 13.388C95.0719 13.772 95.2399 14.102 95.5759 14.378C95.9119 14.642 96.4459 14.9 97.1779 15.152L97.9879 15.422C98.5039 15.602 98.9719 15.812 99.3919 16.052C99.8239 16.28 100.19 16.556 100.49 16.88C100.802 17.204 101.036 17.576 101.192 17.996C101.36 18.404 101.444 18.878 101.444 19.418C101.444 20.09 101.306 20.672 101.03 21.164C100.766 21.644 100.424 22.04 100.004 22.352C99.5839 22.664 99.1099 22.898 98.5819 23.054C98.0539 23.21 97.5379 23.288 97.0339 23.288ZM109.547 23.288C108.587 23.288 107.693 23.114 106.865 22.766C106.049 22.418 105.341 21.944 104.741 21.344C104.141 20.732 103.667 20.018 103.319 19.202C102.983 18.374 102.815 17.492 102.815 16.556C102.815 15.62 102.983 14.744 103.319 13.928C103.667 13.1 104.141 12.386 104.741 11.786C105.341 11.174 106.049 10.694 106.865 10.346C107.693 9.998 108.587 9.824 109.547 9.824C110.507 9.824 111.395 9.998 112.211 10.346C113.039 10.694 113.753 11.174 114.353 11.786C114.953 12.386 115.421 13.1 115.757 13.928C116.105 14.744 116.279 15.62 116.279 16.556C116.279 17.492 116.105 18.374 115.757 19.202C115.421 20.018 114.953 20.732 114.353 21.344C113.753 21.944 113.039 22.418 112.211 22.766C111.395 23.114 110.507 23.288 109.547 23.288ZM109.547 20.984C110.147 20.984 110.705 20.876 111.221 20.66C111.749 20.444 112.205 20.144 112.589 19.76C112.985 19.376 113.291 18.914 113.507 18.374C113.735 17.822 113.849 17.216 113.849 16.556C113.849 15.896 113.735 15.296 113.507 14.756C113.291 14.204 112.985 13.736 112.589 13.352C112.205 12.968 111.749 12.668 111.221 12.452C110.705 12.236 110.147 12.128 109.547 12.128C108.947 12.128 108.383 12.236 107.855 12.452C107.339 12.668 106.883 12.968 106.487 13.352C106.103 13.736 105.797 14.204 105.569 14.756C105.353 15.296 105.245 15.896 105.245 16.556C105.245 17.216 105.353 17.822 105.569 18.374C105.797 18.914 106.103 19.376 106.487 19.76C106.883 20.144 107.339 20.444 107.855 20.66C108.383 20.876 108.947 20.984 109.547 20.984ZM122.962 23.288C122.206 23.288 121.516 23.168 120.892 22.928C120.28 22.676 119.758 22.316 119.326 21.848C118.894 21.38 118.558 20.816 118.318 20.156C118.078 19.484 117.958 18.722 117.958 17.87V10.112H120.388V18.014C120.388 18.446 120.442 18.842 120.55 19.202C120.658 19.562 120.82 19.874 121.036 20.138C121.252 20.402 121.522 20.612 121.846 20.768C122.17 20.912 122.542 20.984 122.962 20.984C123.394 20.984 123.772 20.912 124.096 20.768C124.42 20.612 124.69 20.402 124.906 20.138C125.122 19.874 125.284 19.562 125.392 19.202C125.5 18.842 125.554 18.446 125.554 18.014V10.112H127.984V17.87C127.984 18.674 127.864 19.412 127.624 20.084C127.396 20.744 127.06 21.314 126.616 21.794C126.184 22.262 125.656 22.628 125.032 22.892C124.42 23.156 123.73 23.288 122.962 23.288ZM130.287 10.112H133.113L138.297 18.752H138.441L138.297 16.268V10.112H140.709V23H138.153L132.681 13.874H132.537L132.681 16.358V23H130.287V10.112ZM143.295 10.112H147.651C148.671 10.112 149.589 10.268 150.405 10.58C151.221 10.892 151.917 11.336 152.493 11.912C153.069 12.476 153.507 13.154 153.807 13.946C154.119 14.738 154.275 15.608 154.275 16.556C154.275 17.516 154.119 18.392 153.807 19.184C153.507 19.976 153.069 20.654 152.493 21.218C151.917 21.782 151.221 22.22 150.405 22.532C149.589 22.844 148.671 23 147.651 23H143.295V10.112ZM147.543 20.696C148.251 20.696 148.875 20.6 149.415 20.408C149.955 20.204 150.405 19.922 150.765 19.562C151.125 19.202 151.395 18.77 151.575 18.266C151.755 17.75 151.845 17.18 151.845 16.556C151.845 15.932 151.755 15.368 151.575 14.864C151.395 14.348 151.125 13.91 150.765 13.55C150.405 13.19 149.955 12.914 149.415 12.722C148.875 12.518 148.251 12.416 147.543 12.416H145.725V20.696H147.543Z" fill="white"/>
<path d="M6.76501 5.65457V22.0838C6.75576 23.1167 6.39528 24.1036 5.76195 24.8301C5.12862 25.5567 4.27355 25.9642 3.38251 25.9642C2.49145 25.9642 1.63639 25.5567 1.00306 24.8301C0.369718 24.1036 0.00926658 23.1167 0 22.0838V5.65457C0.000582016 4.61477 0.357429 3.61781 0.992058 2.88295C1.62669 2.1481 2.48713 1.73553 3.38415 1.73598C3.94512 1.73425 4.49741 1.89613 4.99026 2.20672C4.99794 2.21054 5.00123 2.2152 5.00489 2.2152C5.00679 2.21762 5.00939 2.21913 5.01221 2.21944C5.29271 2.39684 5.54913 2.6212 5.77318 2.88527C6.08767 3.24843 6.33715 3.68002 6.50738 4.15525C6.67758 4.63049 6.76512 5.14002 6.76501 5.65457Z" fill="white"/>
<path d="M14.4951 9.20424V25.6293C14.4951 26.1442 14.4076 26.654 14.2376 27.1297C14.0677 27.6054 13.8185 28.0376 13.5045 28.4017C13.1904 28.7657 12.8175 29.0545 12.4071 29.2516C11.9968 29.4486 11.557 29.55 11.1128 29.55C10.6686 29.55 10.2288 29.4486 9.81844 29.2516C9.40806 29.0545 9.03522 28.7657 8.72113 28.4017C8.40704 28.0376 8.1579 27.6054 7.98792 27.1297C7.81794 26.654 7.73047 26.1442 7.73047 25.6293V9.20424C7.73036 8.68906 7.81783 8.17888 7.98788 7.70292C8.1579 7.22692 8.40719 6.79443 8.72146 6.43014C9.03573 6.06584 9.40883 5.77687 9.81942 5.57979C10.2301 5.38268 10.6702 5.28128 11.1146 5.2814C11.2354 5.2814 11.3524 5.28988 11.4658 5.30218H11.4735C12.3034 5.40676 13.0707 5.86283 13.6283 6.58285C14.1859 7.30287 14.4946 8.23621 14.4951 9.20382V9.20424Z" fill="#EE4622"/>
<path d="M22.2695 4.53497V20.9643C22.2695 22.0041 21.9132 23.0013 21.2789 23.7366C20.6446 24.4719 19.7842 24.885 18.8872 24.885C17.9902 24.885 17.1299 24.4719 16.4955 23.7366C15.8612 23.0013 15.5049 22.0041 15.5049 20.9643V4.53497C15.5049 4.02002 15.5924 3.51011 15.7626 3.03441C15.9327 2.5587 16.182 2.12653 16.4963 1.7626C16.8106 1.39867 17.1837 1.11012 17.5942 0.913439C18.0048 0.71676 18.4448 0.615814 18.889 0.616371C19.0286 0.614704 19.1681 0.62605 19.3061 0.650298H19.3134C20.0573 0.754628 20.7493 1.14599 21.2781 1.76142C21.5926 2.12541 21.842 2.55776 22.0122 3.0337C22.1823 3.50963 22.2698 4.01979 22.2695 4.53497Z" fill="white"/>
<path d="M30 9.0172V25.4427C30 25.9576 29.9125 26.4674 29.7425 26.9431C29.5725 27.4188 29.3234 27.851 29.0093 28.215C28.6953 28.5791 28.3224 28.8679 27.912 29.065C27.5017 29.262 27.0618 29.3634 26.6177 29.3634C26.1735 29.3634 25.7337 29.262 25.3233 29.065C24.9129 28.8679 24.5401 28.5791 24.226 28.215C23.9119 27.851 23.6628 27.4188 23.4928 26.9431C23.3228 26.4674 23.2354 25.9576 23.2354 25.4427V9.0172C23.2353 8.50202 23.3228 7.99192 23.4928 7.51592C23.6629 7.03996 23.9122 6.60748 24.2264 6.24322C24.5407 5.87893 24.9138 5.59 25.3244 5.39288C25.735 5.19576 26.1751 5.09432 26.6195 5.09436C27.0671 5.09224 27.5103 5.19631 27.9219 5.40013H27.9256C27.9275 5.40255 27.9301 5.40408 27.9329 5.40437C28.3357 5.59945 28.7012 5.88482 29.0085 6.24407C29.3239 6.60718 29.574 7.03933 29.7442 7.51537C29.9144 7.99141 30.0014 8.50189 30 9.0172Z" fill="#EE4622"/>
<g style="mix-blend-mode:multiply" opacity="0.3">
<g style="mix-blend-mode:multiply" opacity="0.3">
<path d="M6.76501 10.3831V22.0838C6.75576 23.1166 6.39528 24.1035 5.76195 24.8301C5.12862 25.5567 4.27355 25.9642 3.38251 25.9642C2.49145 25.9642 1.63639 25.5567 1.00306 24.8301C0.369718 24.1035 0.00926658 23.1166 0 22.0838V21.4095C0 21.4095 0.0073176 21.5066 0.0219518 21.6847C0.0292689 21.8671 0.05122 22.1347 0.0881713 22.4608C0.150501 22.8495 0.258712 23.2264 0.409757 23.5809C0.676816 24.2105 1.09265 24.7393 1.60885 25.1057C2.12505 25.472 2.7204 25.6609 3.32562 25.6504C3.60009 25.6471 3.87305 25.6029 4.13781 25.519C4.69713 25.3364 5.20143 24.9766 5.59391 24.4799C5.99584 23.9746 6.2605 23.3433 6.35489 22.6648C6.36221 22.58 6.3805 22.5121 6.38416 22.4146L6.39916 22.1262C6.40611 21.9778 6.40245 21.753 6.40611 21.5707C6.40611 21.189 6.40977 20.8031 6.41343 20.4256C6.41343 19.6665 6.43538 18.9201 6.44306 18.1949C6.46831 16.7488 6.50855 15.3997 6.55611 14.2424C6.64428 11.9268 6.76501 10.3831 6.76501 10.3831Z" fill="black"/>
</g>
</g>
<g style="mix-blend-mode:overlay" opacity="0.6">
<g style="mix-blend-mode:overlay" opacity="0.6">
<path d="M5.00525 2.21524C4.87805 2.16717 4.74857 2.12753 4.61745 2.09649C4.27943 2.00568 3.93235 1.96858 3.58574 1.98623C3.47674 1.99095 3.3681 2.0037 3.26049 2.0244C3.14715 2.04055 3.03475 2.06462 2.92391 2.09649C2.16918 2.29437 1.49608 2.78699 1.01744 3.49175C0.850586 3.72875 0.710438 3.98939 0.600367 4.26742C0.495283 4.53659 0.415556 4.81812 0.362562 5.10711C0.335648 5.25415 0.315981 5.40279 0.303658 5.55241L0.292683 5.66691C0.292683 5.67116 0.289025 5.73477 0.285366 5.76446C0.281707 5.84079 0.27805 5.91713 0.271098 5.98922C0.256098 6.28609 0.230488 6.56599 0.208537 6.82468C0.163961 7.40229 0.0943604 7.97698 0 8.54649V5.65419C0.000675506 4.97395 0.153928 4.30564 0.444714 3.71481C0.735499 3.12398 1.15382 2.63095 1.65863 2.28411C2.16343 1.93728 2.73736 1.74856 3.32408 1.73649C3.9108 1.72441 4.49013 1.88939 5.00525 2.21524Z" fill="white"/>
</g>
</g>
<g style="mix-blend-mode:multiply" opacity="0.3">
<g style="mix-blend-mode:multiply" opacity="0.3">
<path d="M14.4951 13.9154V25.6293C14.4951 26.1441 14.4076 26.6539 14.2376 27.1296C14.0677 27.6053 13.8185 28.0375 13.5045 28.4016C13.1904 28.7657 12.8175 29.0545 12.4071 29.2515C11.9968 29.4486 11.557 29.55 11.1128 29.55C10.6686 29.55 10.2288 29.4486 9.81844 29.2515C9.40806 29.0545 9.03522 28.7657 8.72113 28.4016C8.40704 28.0375 8.1579 27.6053 7.98792 27.1296C7.81794 26.6539 7.73047 26.1441 7.73047 25.6293V25.1543C7.73047 25.1543 7.73779 25.2518 7.75242 25.4295C7.76537 25.6864 7.79596 25.9416 7.84388 26.1929C8.0091 27.0661 8.42907 27.8467 9.03291 28.4028C9.42419 28.76 9.88107 29.0081 10.3683 29.128C10.4928 29.1572 10.6186 29.1784 10.7451 29.1916C10.8839 29.2027 11.0231 29.2055 11.1622 29.2001C11.4378 29.1826 11.7106 29.1269 11.9747 29.0343C12.522 28.8262 13.01 28.4495 13.3866 27.9444C13.7728 27.4307 14.0197 26.7964 14.0963 26.1208C14.1179 25.9465 14.1301 25.7709 14.1329 25.5949L14.1366 25.022C14.1366 24.6403 14.1402 24.2586 14.1443 23.8816C14.1443 23.1309 14.1658 22.3888 14.1735 21.6678C14.1988 20.234 14.239 18.8943 14.2866 17.745C14.3744 15.4468 14.4951 13.9154 14.4951 13.9154Z" fill="black"/>
</g>
</g>
<g style="mix-blend-mode:overlay" opacity="0.6">
<g style="mix-blend-mode:overlay" opacity="0.6">
<path d="M11.4658 5.30218C11.4329 5.31109 11.3049 5.33229 11.1036 5.36622C10.9902 5.40015 10.8516 5.42559 10.7012 5.47648C10.5334 5.53327 10.3685 5.60108 10.2073 5.67962C10.0224 5.77441 9.84383 5.88514 9.67315 6.01084C9.48884 6.15236 9.31396 6.3097 9.14998 6.48158C8.98257 6.66975 8.83067 6.8756 8.69632 7.09651C8.55807 7.3206 8.44034 7.56081 8.3451 7.81323C8.25232 8.06598 8.18135 8.32879 8.13327 8.59779C8.10873 8.73227 8.09029 8.86819 8.07803 9.00492L8.05974 9.20806L8.05242 9.42901C8.02681 10.01 7.98657 10.5524 7.93901 11.0194C7.89444 11.5423 7.82482 12.0619 7.73047 12.5758V9.20424C7.73036 8.68906 7.81783 8.17888 7.98788 7.70292C8.1579 7.22692 8.40719 6.79443 8.72146 6.43014C9.03573 6.06584 9.40883 5.77687 9.81942 5.57979C10.2301 5.38268 10.6702 5.28128 11.1146 5.2814C11.2354 5.2814 11.3524 5.28988 11.4658 5.30218Z" fill="white"/>
</g>
</g>
<g style="mix-blend-mode:multiply" opacity="0.3">
<g style="mix-blend-mode:multiply" opacity="0.3">
<path d="M22.2695 6.21442V20.9643C22.2695 22.0041 21.9132 23.0014 21.2789 23.7367C20.6446 24.4719 19.7842 24.885 18.8872 24.885C17.9902 24.885 17.1299 24.4719 16.4955 23.7367C15.8612 23.0014 15.5049 22.0041 15.5049 20.9643V20.6335C15.5049 20.6335 15.5122 20.7395 15.5268 20.9389C15.5467 21.2242 15.5895 21.5067 15.6549 21.7828C15.7601 22.2034 15.9259 22.6004 16.1451 22.9571C16.4203 23.4126 16.7788 23.792 17.1951 24.0682C17.6784 24.3935 18.2278 24.5634 18.7866 24.5606C19.0828 24.5644 19.3778 24.5158 19.6614 24.4164C19.9597 24.3204 20.2436 24.1716 20.5028 23.9753C21.0422 23.5647 21.4588 22.9707 21.6955 22.2747L21.7797 22.0118L21.8382 21.7357C21.8601 21.6428 21.8638 21.5537 21.8784 21.4647C21.8941 21.3682 21.9015 21.2702 21.9004 21.1721C21.9187 20.7904 21.9004 20.3282 21.904 19.9126C21.9077 19.0559 21.9114 18.1992 21.9187 17.3552C21.9187 16.5113 21.9406 15.6844 21.9479 14.8828C21.9736 13.2755 22.0138 11.7784 22.0614 10.4935C22.1488 7.92346 22.2695 6.21442 22.2695 6.21442Z" fill="black"/>
</g>
</g>
<g style="mix-blend-mode:overlay" opacity="0.6">
<g style="mix-blend-mode:overlay" opacity="0.6">
<path d="M19.3061 0.650298C19.2585 0.65878 19.1378 0.679985 18.9585 0.70543C18.8488 0.713912 18.7061 0.76862 18.5524 0.798306C18.3839 0.852241 18.2178 0.916078 18.0549 0.989571C17.8679 1.07992 17.6869 1.18624 17.5134 1.30764C17.3242 1.44176 17.1456 1.59503 16.9796 1.76566C16.8915 1.85048 16.8146 1.95226 16.7345 2.04556C16.6613 2.15582 16.5768 2.25294 16.511 2.36787C16.368 2.58904 16.2465 2.82784 16.1488 3.07991C16.0478 3.32972 15.9705 3.59151 15.9183 3.86067C15.9037 3.99638 15.8671 4.09816 15.8561 4.25931L15.8378 4.47941L15.8342 4.53497V4.53921L15.8305 4.54303V4.57314L15.8268 4.6834C15.8012 5.26865 15.761 5.81149 15.7134 6.27799C15.669 6.80229 15.5993 7.32333 15.5049 7.83864V4.53497C15.5049 4.02001 15.5924 3.51011 15.7626 3.03441C15.9327 2.5587 16.182 2.12653 16.4963 1.7626C16.8106 1.39867 17.1837 1.11012 17.5942 0.913439C18.0048 0.71676 18.4448 0.615814 18.889 0.616371C19.0286 0.614704 19.1681 0.62605 19.3061 0.650298Z" fill="white"/>
</g>
</g>
<g style="mix-blend-mode:overlay" opacity="0.6">
<g style="mix-blend-mode:overlay" opacity="0.6">
<path d="M27.9219 5.40013C27.889 5.39123 27.7573 5.36154 27.5488 5.33228C27.428 5.31531 27.2817 5.30641 27.1171 5.30217C26.9336 5.30136 26.7503 5.31425 26.5683 5.34076C26.3582 5.37702 26.1504 5.42931 25.9463 5.49725C25.7264 5.57948 25.5133 5.68465 25.3097 5.8115C24.8747 6.08746 24.4966 6.46943 24.2012 6.9311C24.0501 7.16219 23.9225 7.41261 23.8207 7.6775C23.7227 7.93361 23.6479 8.20079 23.5975 8.47479C23.5702 8.61296 23.5518 8.75329 23.5427 8.89464L23.5317 9.00066L23.528 9.02187L23.5244 9.03841L23.5207 9.09396C23.5171 9.16606 23.5134 9.23391 23.5097 9.30601C23.4915 9.58591 23.4695 9.85309 23.4439 10.0948C23.3995 10.643 23.3299 11.188 23.2354 11.7276V9.0172C23.2353 8.50202 23.3228 7.99192 23.4928 7.51592C23.6629 7.03996 23.9122 6.60748 24.2264 6.24322C24.5407 5.87893 24.9138 5.59 25.3244 5.39288C25.735 5.19576 26.1751 5.09432 26.6195 5.09436C27.0671 5.09224 27.5103 5.19631 27.9219 5.40013Z" fill="white"/>
</g>
</g>
<g style="mix-blend-mode:multiply" opacity="0.3">
<g style="mix-blend-mode:multiply" opacity="0.3">
<path d="M30 14.9083V25.4427C30 25.9576 29.9125 26.4674 29.7425 26.9431C29.5725 27.4188 29.3234 27.851 29.0093 28.2151C28.6953 28.5791 28.3224 28.8679 27.912 29.065C27.5017 29.262 27.0618 29.3634 26.6177 29.3634C26.1735 29.3634 25.7337 29.262 25.3233 29.065C24.9129 28.8679 24.5401 28.5791 24.226 28.2151C23.9119 27.851 23.6628 27.4188 23.4928 26.9431C23.3228 26.4674 23.2354 25.9576 23.2354 25.4427C23.2354 25.4427 23.2463 25.5318 23.2683 25.7014C23.2775 25.802 23.2946 25.9013 23.3195 25.9983C23.3421 26.1325 23.3739 26.2643 23.4146 26.3927C23.6002 27.0433 23.9324 27.6246 24.3769 28.0765C24.8214 28.5283 25.362 28.8343 25.9427 28.9627C26.0634 28.9881 26.1768 28.9966 26.2976 29.0136L26.5024 29.0178H26.6378L26.6854 29.0093C26.9434 28.9938 27.1988 28.9425 27.4463 28.8566C27.958 28.6729 28.4204 28.3398 28.789 27.8893C28.9769 27.6579 29.1391 27.4001 29.272 27.1221C29.398 26.8403 29.4927 26.541 29.5537 26.2315C29.5863 26.081 29.6095 25.9279 29.6232 25.7735L29.6378 25.5106V25.4427L29.6415 25.3956V25.2646C29.6415 24.9083 29.6451 24.5517 29.6488 24.2001C29.6488 23.5004 29.6707 22.8049 29.678 22.139C29.7037 20.7989 29.7439 19.5478 29.7915 18.4791C29.8793 16.3328 30 14.9083 30 14.9083Z" fill="black"/>
</g>
</g>
</svg>
